<svg aria-roledescription="er" role="graphics-document document" viewBox="0 0 166.56271362304688 357.5" style="max-width: 100%;" xmlns="http://www.w3.org/2000/svg" width="100%" id="graph-div" height="100%" xmlns:xlink="http://www.w3.org/1999/xlink"><style>@import url("https://cdnjs.cloudflare.com/ajax/libs/font-awesome/6.5.0/css/all.min.css");'</style><style>#graph-div{font-family:"trebuchet ms",verdana,arial,sans-serif;font-size:16px;fill:#ccc;}#graph-div .error-icon{fill:#a44141;}#graph-div .error-text{fill:#ddd;stroke:#ddd;}#graph-div .edge-thickness-normal{stroke-width:2px;}#graph-div .edge-thickness-thick{stroke-width:3.5px;}#graph-div .edge-pattern-solid{stroke-dasharray:0;}#graph-div .edge-pattern-dashed{stroke-dasharray:3;}#graph-div .edge-pattern-dotted{stroke-dasharray:2;}#graph-div .marker{fill:lightgrey;stroke:lightgrey;}#graph-div .marker.cross{stroke:lightgrey;}#graph-div svg{font-family:"trebuchet ms",verdana,arial,sans-serif;font-size:16px;}#graph-div .entityBox{fill:#1f2020;stroke:#81B1DB;}#graph-div .attributeBoxOdd{fill:hsl(0, 0%, 32%);stroke:#81B1DB;}#graph-div .attributeBoxEven{fill:hsl(0, 0%, 22%);stroke:#81B1DB;}#graph-div .relationshipLabelBox{fill:hsl(20, 1.5873015873%, 12.3529411765%);opacity:0.7;background-color:hsl(20, 1.5873015873%, 12.3529411765%);}#graph-div .relationshipLabelBox rect{opacity:0.5;}#graph-div .relationshipLine{stroke:lightgrey;}#graph-div .entityTitleText{text-anchor:middle;font-size:18px;fill:#ccc;}#graph-div #MD_PARENT_START{fill:#f5f5f5!important;stroke:lightgrey!important;stroke-width:1;}#graph-div #MD_PARENT_END{fill:#f5f5f5!important;stroke:lightgrey!important;stroke-width:1;}#graph-div :root{--mermaid-font-family:"trebuchet ms",verdana,arial,sans-serif;}</style><g></g><defs><marker orient="auto" markerHeight="240" markerWidth="190" refY="7" refX="0" id="MD_PARENT_START"><path d="M 18,7 L9,13 L1,7 L9,1 Z"></path></marker></defs><defs><marker orient="auto" markerHeight="28" markerWidth="20" refY="7" refX="19" id="MD_PARENT_END"><path d="M 18,7 L9,13 L1,7 L9,1 Z"></path></marker></defs><defs><marker orient="auto" markerHeight="18" markerWidth="18" refY="9" refX="0" id="ONLY_ONE_START"><path d="M9,0 L9,18 M15,0 L15,18" fill="none" stroke="gray"></path></marker></defs><defs><marker orient="auto" markerHeight="18" markerWidth="18" refY="9" refX="18" id="ONLY_ONE_END"><path d="M3,0 L3,18 M9,0 L9,18" fill="none" stroke="gray"></path></marker></defs><defs><marker orient="auto" markerHeight="18" markerWidth="30" refY="9" refX="0" id="ZERO_OR_ONE_START"><circle r="6" cy="9" cx="21" fill="white" stroke="gray"></circle><path d="M9,0 L9,18" fill="none" stroke="gray"></path></marker></defs><defs><marker orient="auto" markerHeight="18" markerWidth="30" refY="9" refX="30" id="ZERO_OR_ONE_END"><circle r="6" cy="9" cx="9" fill="white" stroke="gray"></circle><path d="M21,0 L21,18" fill="none" stroke="gray"></path></marker></defs><defs><marker orient="auto" markerHeight="36" markerWidth="45" refY="18" refX="18" id="ONE_OR_MORE_START"><path d="M0,18 Q 18,0 36,18 Q 18,36 0,18 M42,9 L42,27" fill="none" stroke="gray"></path></marker></defs><defs><marker orient="auto" markerHeight="36" markerWidth="45" refY="18" refX="27" id="ONE_OR_MORE_END"><path d="M3,9 L3,27 M9,18 Q27,0 45,18 Q27,36 9,18" fill="none" stroke="gray"></path></marker></defs><defs><marker orient="auto" markerHeight="36" markerWidth="57" refY="18" refX="18" id="ZERO_OR_MORE_START"><circle r="6" cy="18" cx="48" fill="white" stroke="gray"></circle><path d="M0,18 Q18,0 36,18 Q18,36 0,18" fill="none" stroke="gray"></path></marker></defs><defs><marker orient="auto" markerHeight="36" markerWidth="57" refY="18" refX="39" id="ZERO_OR_MORE_END"><circle r="6" cy="18" cx="9" fill="white" stroke="gray"></circle><path d="M21,18 Q39,0 57,18 Q39,36 21,18" fill="none" stroke="gray"></path></marker></defs><path style="stroke: gray; fill: none;" marker-start="url(#ONLY_ONE_START)" marker-end="url(#ZERO_OR_MORE_END)" d="M83.281,171.25L83.281,179.583C83.281,187.917,83.281,204.583,83.281,221.25C83.281,237.917,83.281,254.583,83.281,262.917L83.281,271.25" class="er relationshipLine"></path><g transform="translate(20,20 )" id="entity-OPERATIONS-960ec3a6-2521-56cc-9803-67cabf6c9acd"><rect height="151.25" width="126.56270980834961" y="0" x="0" class="er entityBox"></rect><text transform="translate(63.281354904174805,11.875)" style="dominant-baseline: middle; text-anchor: middle; font-size: 12px;" y="0" x="0" id="text-entity-OPERATIONS-960ec3a6-2521-56cc-9803-67cabf6c9acd" class="er entityLabel">OPERATIONS</text><rect height="21.25" width="35.51057815551758" y="23.75" x="0" class="er attributeBoxOdd"></rect><text transform="translate(5,34.375)" style="dominant-baseline: middle; font-size: 10.2px;" y="0" x="0" id="text-entity-OPERATIONS-960ec3a6-2521-56cc-9803-67cabf6c9acd-attr-1-type" class="er entityLabel">string</text><rect height="21.25" width="91.05213165283203" y="23.75" x="35.51057815551758" class="er attributeBoxOdd"></rect><text transform="translate(40.51057815551758,34.375)" style="dominant-baseline: middle; font-size: 10.2px;" y="0" x="0" id="text-entity-OPERATIONS-960ec3a6-2521-56cc-9803-67cabf6c9acd-attr-1-name" class="er entityLabel">user</text><rect height="21.25" width="35.51057815551758" y="45" x="0" class="er attributeBoxEven"></rect><text transform="translate(5,55.625)" style="dominant-baseline: middle; font-size: 10.2px;" y="0" x="0" id="text-entity-OPERATIONS-960ec3a6-2521-56cc-9803-67cabf6c9acd-attr-2-type" class="er entityLabel">string</text><rect height="21.25" width="91.05213165283203" y="45" x="35.51057815551758" class="er attributeBoxEven"></rect><text transform="translate(40.51057815551758,55.625)" style="dominant-baseline: middle; font-size: 10.2px;" y="0" x="0" id="text-entity-OPERATIONS-960ec3a6-2521-56cc-9803-67cabf6c9acd-attr-2-name" class="er entityLabel">group</text><rect height="21.25" width="35.51057815551758" y="66.25" x="0" class="er attributeBoxOdd"></rect><text transform="translate(5,76.875)" style="dominant-baseline: middle; font-size: 10.2px;" y="0" x="0" id="text-entity-OPERATIONS-960ec3a6-2521-56cc-9803-67cabf6c9acd-attr-3-type" class="er entityLabel">string</text><rect height="21.25" width="91.05213165283203" y="66.25" x="35.51057815551758" class="er attributeBoxOdd"></rect><text transform="translate(40.51057815551758,76.875)" style="dominant-baseline: middle; font-size: 10.2px;" y="0" x="0" id="text-entity-OPERATIONS-960ec3a6-2521-56cc-9803-67cabf6c9acd-attr-3-name" class="er entityLabel">executable</text><rect height="21.25" width="35.51057815551758" y="87.5" x="0" class="er attributeBoxEven"></rect><text transform="translate(5,98.125)" style="dominant-baseline: middle; font-size: 10.2px;" y="0" x="0" id="text-entity-OPERATIONS-960ec3a6-2521-56cc-9803-67cabf6c9acd-attr-4-type" class="er entityLabel">string</text><rect height="21.25" width="91.05213165283203" y="87.5" x="35.51057815551758" class="er attributeBoxEven"></rect><text transform="translate(40.51057815551758,98.125)" style="dominant-baseline: middle; font-size: 10.2px;" y="0" x="0" id="text-entity-OPERATIONS-960ec3a6-2521-56cc-9803-67cabf6c9acd-attr-4-name" class="er entityLabel">syscall</text><rect height="21.25" width="35.51057815551758" y="108.75" x="0" class="er attributeBoxOdd"></rect><text transform="translate(5,119.375)" style="dominant-baseline: middle; font-size: 10.2px;" y="0" x="0" id="text-entity-OPERATIONS-960ec3a6-2521-56cc-9803-67cabf6c9acd-attr-5-type" class="er entityLabel">string</text><rect height="21.25" width="91.05213165283203" y="108.75" x="35.51057815551758" class="er attributeBoxOdd"></rect><text transform="translate(40.51057815551758,119.375)" style="dominant-baseline: middle; font-size: 10.2px;" y="0" x="0" id="text-entity-OPERATIONS-960ec3a6-2521-56cc-9803-67cabf6c9acd-attr-5-name" class="er entityLabel">operation_key</text><rect height="21.25" width="35.51057815551758" y="130" x="0" class="er attributeBoxEven"></rect><text transform="translate(5,140.625)" style="dominant-baseline: middle; font-size: 10.2px;" y="0" x="0" id="text-entity-OPERATIONS-960ec3a6-2521-56cc-9803-67cabf6c9acd-attr-6-type" class="er entityLabel">int</text><rect height="21.25" width="91.05213165283203" y="130" x="35.51057815551758" class="er attributeBoxEven"></rect><text transform="translate(40.51057815551758,140.625)" style="dominant-baseline: middle; font-size: 10.2px;" y="0" x="0" id="text-entity-OPERATIONS-960ec3a6-2521-56cc-9803-67cabf6c9acd-attr-6-name" class="er entityLabel">epoch_timestamp</text></g><g transform="translate(20,271.25 )" id="entity-files-8cec107c-7319-577e-a502-4ea812b39774"><rect height="66.25" width="126.56270980834961" y="0" x="0" class="er entityBox"></rect><text transform="translate(63.281354904174805,11.875)" style="dominant-baseline: middle; text-anchor: middle; font-size: 12px;" y="0" x="0" id="text-entity-files-8cec107c-7319-577e-a502-4ea812b39774" class="er entityLabel">files</text><rect height="21.25" width="35.51057815551758" y="23.75" x="0" class="er attributeBoxOdd"></rect><text transform="translate(5,34.375)" style="dominant-baseline: middle; font-size: 10.2px;" y="0" x="0" id="text-entity-files-8cec107c-7319-577e-a502-4ea812b39774-attr-1-type" class="er entityLabel">string</text><rect height="21.25" width="91.05213165283203" y="23.75" x="35.51057815551758" class="er attributeBoxOdd"></rect><text transform="translate(40.51057815551758,34.375)" style="dominant-baseline: middle; font-size: 10.2px;" y="0" x="0" id="text-entity-files-8cec107c-7319-577e-a502-4ea812b39774-attr-1-name" class="er entityLabel">absolute_path</text><rect height="21.25" width="35.51057815551758" y="45" x="0" class="er attributeBoxEven"></rect><text transform="translate(5,55.625)" style="dominant-baseline: middle; font-size: 10.2px;" y="0" x="0" id="text-entity-files-8cec107c-7319-577e-a502-4ea812b39774-attr-2-type" class="er entityLabel">int</text><rect height="21.25" width="91.05213165283203" y="45" x="35.51057815551758" class="er attributeBoxEven"></rect><text transform="translate(40.51057815551758,55.625)" style="dominant-baseline: middle; font-size: 10.2px;" y="0" x="0" id="text-entity-files-8cec107c-7319-577e-a502-4ea812b39774-attr-2-name" class="er entityLabel">epoch_timestamp</text></g><rect height="13.75" width="13.33984375" y="214.375" x="76.61107635498047" class="er relationshipLabelBox"></rect><text style="text-anchor: middle; dominant-baseline: middle; font-size: 12px;" y="221.25" x="83.28099822998047" id="rel280" class="er relationshipLabel">on</text></svg>